<?xml version="1.0" encoding="UTF-8" standalone="no"?>
<!-- Created with Inkscape (http://www.inkscape.org/) -->

<svg
   xmlns:dc="http://purl.org/dc/elements/1.1/"
   xmlns:cc="http://creativecommons.org/ns#"
   xmlns:rdf="http://www.w3.org/1999/02/22-rdf-syntax-ns#"
   xmlns:svg="http://www.w3.org/2000/svg"
   xmlns="http://www.w3.org/2000/svg"
   version="1.1"
   width="64"
   height="64"
   id="svg2993">
  <defs
     id="defs2995" />
  <metadata
     id="metadata2998">
    <rdf:RDF>
      <cc:Work
         rdf:about="">
        <dc:format>image/svg+xml</dc:format>
        <dc:type
           rdf:resource="http://purl.org/dc/dcmitype/StillImage" />
        <dc:title></dc:title>
      </cc:Work>
    </rdf:RDF>
  </metadata>
  <g
     id="layer1">
    <path
       d="m 62.545454,32.454544 a 29.454546,29.727272 0 1 1 -58.9090919,0 29.454546,29.727272 0 1 1 58.9090919,0 z"
       transform="matrix(1.0555556,0,0,1.0642202,-3.1111111,-2.5387823)"
       id="path3001"
       style="fill:#000000" />
    <path
       d="m 48.727274,31.454546 a 14.818182,15.272727 0 1 1 -29.636364,0 14.818182,15.272727 0 1 1 29.636364,0 z"
       transform="matrix(1.588957,0,0,1.4285714,-22.334636,-4.9350655)"
       id="path3003"
       style="fill:#000080" />
    <path
       d="m 39.636363,41.272728 a 8.454545,8.363636 0 1 1 -16.90909,0 8.454545,8.363636 0 1 1 16.90909,0 z"
       transform="translate(0.90909091,8.1818182)"
       id="path3005"
       style="fill:#f9f9f9" />
  </g>
</svg>
